<?xml version="1.0" encoding="utf-8"?>
<!-- Generator: Adobe Illustrator 21.0.0, SVG Export Plug-In . SVG Version: 6.00 Build 0)  -->
<svg version="1.1" id="Camada_1" xmlns="http://www.w3.org/2000/svg" xmlns:xlink="http://www.w3.org/1999/xlink" x="0px" y="0px"
	 viewBox="0 0 212 109" style="enable-background:new 0 0 212 109;" xml:space="preserve">
<style type="text/css">
	.st0{fill:#38B249;}
	.st1{fill:#192d53;}
</style>
<g>
	<g>
		<path class="st0" d="M151.9,49.7c0.8-0.7,1.4-1.5,1.5-2.2c0,0,0-0.3,0.1-1c0.1-0.6-2.6-25.9-2.6-25.9c-0.1-1-0.8-1.9-1.8-2.3
			c-1-0.5-2.4-0.7-3.8-0.4c0,0-0.6,0.1-1.7,0.4c-1.1,0.2-22.6,6.4-23.4,6.7c-0.6,0.2-1.1,0.4-1.6,0.5l-0.1,0l0,0
			c-2.7,0.9-3.4,3.2-3.1,5.5c0.3,2.1,0.7,4.2,0.7,4.2c0.2,0.9,0.1,1.8-0.1,2.7c-0.2,0.9-0.7,1.7-1.2,2.5c-0.6,0.8-1.2,1.4-2,2
			c-0.8,0.5-1.7,0.9-2.6,1.2c0,0-1.6,0.4-4,1c-1.2,0.3-2.4,0.6-3.7,1c-1.3,0.3-2.6,0.7-3.8,1c-1.2,0.3-2.3,0.6-3.4,0.9
			c-1,0.3-1.9,0.5-2.6,0.7c-1.4,0.4-2.4,0.6-2.4,0.6c-1,0.3-2,0-3-0.6c-0.9-0.6-1.7-1.6-2.2-2.8c0,0-0.4-1-0.8-2.2
			c-0.1-0.2-0.1-0.3-0.2-0.5c-0.1-0.2-0.1-0.4-0.2-0.5c-0.5-1.3-1.5-1.8-3-1.2c-1,0.5-2,1-3,1.5c-1.2,0.6-2.2,1.1-3,1.5
			c-0.7,0.4-1.2,0.6-1.2,0.6c-0.5,0.3-0.6,1.3-0.2,2.3c0,0,0.4,0.9,1,2.2c0.3,0.7,0.7,1.4,1.1,2.2c0.4,0.8,0.9,1.6,1.4,2.4
			c0.5,0.8,1,1.6,1.5,2.3c0.5,0.7,0.9,1.4,1.4,1.9c0.5,0.7,1,1.3,1.2,1.6c0.1,0.1,0.2,0.2,0.2,0.2c0.6,0.8,1.6,1.3,2.2,1.3
			c0,0,0.5,0,1.4-0.1c0.8,0,2-0.1,3.3-0.1c1.2-0.1,2.4-0.1,3.5-0.2c1.1-0.4,1.3-1.1,0.7-2.1c-0.8-1-1.5-2.1-1.5-2.1
			c-0.6-1-0.8-1.9-0.7-2.7c0.2-0.8,0.8-1.4,1.8-1.6c0,0,0.9-0.2,2.4-0.5c0.7-0.1,1.6-0.3,2.6-0.5c1-0.2,2.1-0.4,3.4-0.7
			c1.2-0.3,2.5-0.5,3.8-0.8c1.3-0.3,2.5-0.5,3.7-0.8c2.3-0.5,3.9-0.8,3.9-0.8c0.9-0.2,1.9-0.3,2.9-0.2c0.9,0.1,1.9,0.3,2.7,0.7
			c0.8,0.3,1.6,0.8,2.2,1.3c0.6,0.5,1.1,1.2,1.3,1.9c0,0,0.6,1.5,1.2,2.9c0.2,0.5,0.4,0.9,0.6,1.3c0.6,0.8,1.3,1.1,2.3,1
			c0.7-0.1,1.7-0.3,2.7-0.5c1.4-0.2,21.3-5.2,21.3-5.2C150.1,51,151.1,50.4,151.9,49.7z M85.8,58.7C84,58.9,82.4,59,82.4,59
			s-0.3-0.5-0.9-1.2l-0.3-0.5c-0.4-0.5-0.8-1.1-1.2-1.8c-0.4-0.7-0.9-1.4-1.3-2.1c-0.5-0.7-0.9-1.5-1.3-2.2c-0.4-0.7-0.7-1.4-1-2
			c-0.6-1.2-1-2-1-2s1.5-0.6,3.1-1.3c1.7-0.7,3.6-1.5,3.6-1.5c0.3,0.6,0.5,1.3,0.7,1.9c0.2,0.5,0.4,0.9,0.7,1.3
			c0.4,0.6,0.8,1.2,1.3,1.7c0.8,0.9,1.7,1.5,2.7,2c-0.3,0.8-0.4,1.7-0.2,2.6c0.2,0.9,0.6,1.9,1.2,2.9c0.4,0.5,0.7,1,1.1,1.6
			C89.6,58.4,87.6,58.6,85.8,58.7z M127.7,52.8c-0.3-0.7-0.5-1.5-0.7-2.3c-0.2-0.7-0.6-1.4-1.1-2.1c-0.5-0.7-1.1-1.3-1.8-1.9
			c-0.7-0.6-1.5-1.1-2.3-1.5c-0.9-0.4-1.8-0.8-2.8-1.1c0.7-0.7,1.3-1.5,1.9-2.3c0.5-0.8,1-1.7,1.3-2.6c0.4-0.9,0.6-1.9,0.7-2.8
			c0.1-1,0.1-2-0.1-2.9c-0.2-1.1-0.3-2.2-0.5-3.3l21.1-5.9l3.7,24L127.7,52.8z"/>
		<path class="st0" d="M126,69c-0.2-0.4-0.5-0.8-0.9-1.3c-0.3-0.5-0.7-1.1-1.1-1.7c-0.4-0.6-0.8-1.3-1.1-1.9
			c-0.4-0.7-0.7-1.3-1.1-1.9l-0.2-0.3l0,0l-0.1-0.2c-0.5-1-1.4-1.5-2.7-1.4c-0.7,0.1-1.4,0.2-2.2,0.2c-2,0.2-3.9,0.4-3.9,0.4
			c-0.2,0-0.4,0-0.6,0c-0.6,0-1.2,0-1.8-0.1c-0.8-0.1-1.5-0.3-2.2-0.6c-0.7-0.3-1.3-0.7-1.8-1.1c-0.5-0.4-1-0.9-1.3-1.5
			c0,0-0.5-1-1.3-2.6c-0.4-0.8-0.9-2-1.4-3l-3.9,0.8c0.5,1,0.9,1.9,1.3,2.7c0.8,1.5,1.3,2.5,1.3,2.5c0.6,1,0.7,2,0.3,2.6
			c-0.4,0.7-1.2,1.1-2.3,1.1l-1.9,0.1l0,0c-1.3,0.3-1.7,0.9-1,2.2c0.4,0.4,0.7,0.9,1.2,1.3c0.5,0.6,1.1,1.2,1.6,1.8
			c0.5,0.6,1.1,1.1,1.6,1.6c0.5,0.5,1,0.9,1.4,1.3c0.8,0.7,1.3,1.1,1.3,1.1c0.6,0.5,1.9,0.9,3,0.9c0,0,1,0,2.5,0l0.8,0
			c0.6,0,1.2,0,1.9,0c1,0,2.1,0,3.3-0.1c1.1,0,2.3-0.1,3.5-0.1c1.1-0.1,2.2-0.1,3.2-0.2c1.9-0.1,3.2-0.3,3.2-0.3
			c1.5-0.1,2.4-0.6,2.1-1.1C126.8,70.1,126.5,69.7,126,69z M118.8,69.6c-0.9,0.1-1.9,0.1-2.9,0.2c-1,0-2.1,0.1-3.1,0.1
			c-1,0-2,0-3,0.1l-0.5,0c-0.7,0-3.9,0-3.9,0s-4.8-4.3-5.1-4.7c-0.6-0.7-1-1.2-1-1.2c0.6,0,1.2,0,1.8,0c1.2,0,2.2-0.3,2.9-0.6
			c0.8-0.4,1.4-1,1.7-1.7c0.6,0.3,1.3,0.6,2,0.8c0.7,0.2,1.4,0.4,2.2,0.6c0.6,0.1,1.2,0.2,1.8,0.3c0.2,0,0.3,0,0.5,0
			c0.8,0.1,1.6,0,2.4,0c0.9-0.1,1.9-0.2,2.8-0.2c0,0,0.3,0.5,0.9,1.3c0.3,0.4,3.5,4.9,3.5,4.9S120.5,69.4,118.8,69.6z"/>
		<path class="st0" d="M83.2,28.5c0.1,1.2,0.2,2.4,0.3,3.5c0.1,1.1,0.2,2.1,0.4,3c0.3,1.8,1.5,2.4,3.6,1.5c0.9-0.4,1.6-0.7,1.6-0.7
			c1.2-0.5,2.4-0.4,3.3,0.3c0.2,0.1,0.3,0.2,0.5,0.3c0.8,0.7,1.3,1.7,1.6,2.9c0,0,1,4.6,1.4,5.8c1.4-0.3,2.7-0.8,4-1.2
			c-0.4-1.2-1.3-6-1.3-6c-0.1-0.8-0.1-1.6,0.1-2.4c0.2-0.8,0.5-1.6,1-2.3c0.5-0.7,1.1-1.4,1.8-2c0.7-0.6,1.5-1.1,2.4-1.4
			c0,0,2.2-0.8,4.5-1.6c1.8-0.8,4.4-2.5,4.6-5.6c0-1.2,0-2.6,0-4c0-1.4,0-2.9,0.1-4.4c0-1.5,0.1-2.9,0.2-4.1
			c0.1-1.3,0.2-2.5,0.2-3.4c0.2-1.9,0.3-3.2,0.3-3.2c0.1-1.5-1.6-1.9-3.8-0.9c0,0-1.9,0.8-4.7,2.1c-1.4,0.6-2.9,1.4-4.5,2.1
			c-0.2,0.1-0.5,0.2-0.7,0.4c-1.3,0.7-2.7,1.4-4,2.1c-1.5,0.8-2.9,1.6-4.2,2.3c-1.3,0.7-2.4,1.4-3.3,2c-1.8,1.1-3,1.9-3,1.9
			c-1.2,0.8-2.2,2.5-2.3,3.8c0,0-0.1,1.1-0.1,2.9c0,0.8,0,1.9,0,3C83.1,26.2,83.1,27.3,83.2,28.5z M86.1,22.9c0-0.8,0-1.6,0.1-2.3
			c0.1-1.3,0.1-2.2,0.1-2.2s1-0.6,2.7-1.6c0.8-0.5,1.8-1.1,2.9-1.7c1.1-0.6,2.4-1.3,3.7-2c1.1-0.6,2.2-1.2,3.4-1.7l0.7-0.3
			c1.4-0.7,2.7-1.3,3.9-1.9c2.4-1.1,4.1-1.8,4.1-1.8s-0.1,0.9-0.2,2.4c-0.1,0.7-0.1,1.6-0.2,2.5c-0.1,0.9-0.1,1.9-0.2,3
			c0,1-0.1,2.1-0.1,3.1c0,1,0,1.9,0,2.8c0,1.6,0,2.7,0,2.7c-1.1,0.4-2.2,0.9-3.2,1.3c-0.9,0.4-1.8,0.9-2.7,1.4
			c-0.8,0.5-1.6,1.1-2.3,1.8c-0.7,0.6-1.3,1.3-1.8,2.1c-0.5,0.7-1,1.5-1.4,2.2c-0.5-0.4-1-0.7-1.5-0.9c-0.6-0.3-1.2-0.4-1.8-0.5
			c-1.2-0.1-2.5,0.1-3.7,0.7c-0.7,0.3-1.3,0.6-2,1c0,0-0.1-0.9-0.2-2.3c0-0.7-0.1-1.5-0.1-2.3c0-0.8-0.1-1.7-0.1-2.7
			C86.1,24.6,86.1,23.7,86.1,22.9z"/>
	</g>
	<g>
		<path class="st1" d="M120.1,81.4c-5,0-6.6,2.1-6.6,8.6c0,6.4,2.6,7.8,6.6,7.8c4.4,0,6.5-1.3,6.5-8.5
			C126.6,83.4,125,81.4,120.1,81.4z M124.2,89.5c0,5.7-1,6.2-4.1,6.2c-3.2,0-4.2-0.5-4.2-6.2c0-5.3,0.5-6.1,4.2-6.1
			C123.1,83.4,124.2,83.9,124.2,89.5z"/>
		<path class="st1" d="M134.5,76.3L134.5,76.3c-0.6-0.1-1.3-0.2-1.8-0.2c-3.3,0-4,1.7-4,4.4v15.8c0,0.9,0.4,1.3,1.2,1.3
			c1.1,0,1.1-0.9,1.1-1.3V83.7h2.1c0.6,0,1.3-0.1,1.3-1.1c0-0.9-0.6-1-1.3-1H131v-1.2c0-2,0.1-2.3,1.9-2.3h1.1c0.4,0,1.2,0,1.2-0.9
			C135.1,76.8,134.9,76.4,134.5,76.3z"/>
		<path class="st1" d="M142,95.6h-0.8c-1,0-1.2-0.2-1.2-1.8V83.7h1.8c0.6,0,1.3-0.1,1.3-1.1c0-0.9-0.6-1-1.3-1H140v-3.6
			c0-0.9-0.4-1.3-1.2-1.3c-1.1,0-1.1,0.9-1.1,1.3v3.6h-0.4c-0.6,0-1.3,0.1-1.3,1c0,1,0.6,1.1,1.3,1.1h0.4v9.5c0,1.2,0,2.2,0.4,2.9
			c0.5,0.9,1.4,1.3,2.9,1.3c0.7,0,1.1,0,1.5-0.1c0.4-0.1,0.7-0.5,0.7-1C143.2,95.6,142.3,95.6,142,95.6z"/>
		<path class="st1" d="M166.6,81.5c-0.8,0-1.1,0.5-1.2,0.9c-0.3,1.5-2.2,8.5-3.1,11.7c-0.1,0.3-0.2,0.4-0.3,0.4
			c-0.1,0-0.2-0.2-0.3-0.4c-0.9-2.8-2.8-8.7-3.5-10.9l-0.2-0.8c-0.3-0.9-1.2-0.9-1.6-0.9c-0.4,0-1.4,0-1.7,0.9
			c-0.3,1.3-2.5,8.2-3.7,11.6c-0.1,0.3-0.2,0.4-0.3,0.4c-0.1,0-0.3-0.2-0.3-0.4c-0.9-3.2-2.8-10.2-3.1-11.7
			c-0.1-0.6-0.5-0.8-1.1-0.8c-0.7,0-1.3,0.4-1.3,1c0,0.8,3.5,13,4.1,14.3c0.4,0.9,1.4,0.9,1.7,0.9c0.8,0,1.4-0.3,1.6-0.9
			c0.4-0.9,2.5-7.2,3.8-11.3c0-0.2,0.1-0.3,0.3-0.3c0.1,0,0.2,0.1,0.3,0.3c1.2,4.1,3.3,10.4,3.7,11.2c0.4,0.9,1.3,0.9,1.7,0.9
			c0.3,0,1.3,0,1.7-0.8c0.6-1.4,4-13.6,4-14.3C167.7,82.1,167.3,81.5,166.6,81.5z"/>
		<path class="st1" d="M174.2,81.4c-1.4,0-3,0.2-3.9,0.5c-0.4,0.2-0.6,0.5-0.6,0.9c0,0.2,0.1,0.4,0.2,0.6c0.2,0.2,0.4,0.4,0.7,0.4
			c0.1,0,0.1,0,0.2,0c1-0.2,2.4-0.4,3.6-0.4c3,0,3.3,1,3.3,3.1c0,0.6,0,1.3-0.1,1.4c0,0-0.2,0-0.5,0.1l-2.7,0.2
			c-4.5,0.4-5.8,1.5-5.8,4.8c0,3.4,1.8,4.6,6.6,4.6c3.6,0,4.8-0.2,4.8-2.2v-8.5C179.9,83.2,179,81.4,174.2,81.4z M177.6,91.1v3.2
			c0,0.8,0,1.1-0.3,1.2c-0.3,0.2-1,0.2-2.3,0.2c-3.4,0-4.3-0.6-4.3-2.6c0-2.6,0.9-2.9,4.3-2.9h1.6c0.4,0,0.7,0,0.7,0.1
			C177.6,90.4,177.6,90.7,177.6,91.1z"/>
		<path class="st1" d="M190.1,82.5c0-1-0.8-1.1-2-1.1c-1.7,0-3.3,0.2-4.6,0.5c-0.8,0.2-1.1,0.7-1.1,1.7v12.7c0,0.9,0.4,1.3,1.2,1.3
			c1.1,0,1.1-0.9,1.1-1.3V84.5c0-0.7,0-0.7,0.2-0.8c0.4-0.2,1.7-0.3,2.7-0.3c0.4,0,0.6,0,0.8,0c0.2,0,0.4,0,0.6,0
			C189.6,83.5,190.1,83.2,190.1,82.5z"/>
		<path class="st1" d="M200.8,95.1c-0.1,0-0.3,0-0.4,0.1c-0.6,0.2-2.1,0.4-3.5,0.4c-3.6,0-4.8-1.3-4.8-5.2c0-0.2,0-0.3,0-0.4
			c0,0,0.3,0,0.5,0l5.7-0.1c3,0,3.9-0.5,3.9-3.4c0-3.3-2.1-5.2-5.6-5.2c-4.6,0-6.8,2.4-6.8,7.3v1.5c0,5.4,2,7.5,6.9,7.5
			c1.7,0,3.3-0.2,4.4-0.6c0.6-0.3,0.6-0.7,0.6-1C201.6,95.4,201.2,95.1,200.8,95.1z M192.1,87.6c0-2.8,1.5-4.2,4.3-4.2
			c2.3,0,3.4,1.1,3.4,3.4c0,1.3,0,1.3-2.3,1.3h-4.7c-0.2,0-0.7,0-0.8,0c0,0,0-0.1,0-0.3V87.6z"/>
		<path class="st1" d="M107.9,88.4c-2.2-1.7-2.6-2.5-2.6-3.3c0-0.8,0.2-1.6,2.6-1.6c0.8,0,1.5,0,2.4,0.2c0.1,0,0.1,0,0.1,0
			c0.1,0,0.8-0.1,0.8-1.1c0-1.2-1.6-1.3-3.4-1.3c-4.1,0-4.9,2.1-4.9,3.9c0,1.9,1.1,3.1,3.8,5.2c1.9,1.5,2.5,2.3,2.5,3.4
			c0,0.9-0.4,1.8-2.9,1.8c-0.9,0-1.7,0-2.6-0.1c-0.1,0-0.1,0-0.2,0c-0.4,0-1,0.3-1,1.1c0,1.3,1.8,1.3,3.5,1.3c3.6,0,5.4-1.4,5.4-4
			C111.5,91.5,110.2,90.1,107.9,88.4z"/>
	</g>
	<g>
		<path class="st1" d="M37.1,74.1c-1.9,0-2.8,1-2.9,2c-0.5,2.2-2.4,11.2-4,17.6c-0.2,0.8-1,0.6-1.1,0c-0.7-2.4-1.4-5.1-2.2-7.6
			c-1.3-4.5-2.4-8.5-2.8-9.7c-0.3-0.9-1.1-2-3.5-2c-2.6,0-3.4,1.2-3.6,2c-0.5,1.7-3.1,10.7-5,17.2c-0.2,0.8-1,0.8-1.2,0
			c-1.5-6.5-3.6-15.5-4-17.7l0-0.1c-0.1-0.5-0.7-1.9-2.8-1.9c-1.7,0-3,1-3,2.4c0,1.4,5.5,24.1,6.6,26.3c0.6,1.2,1.8,1.8,3.8,1.8
			c2.1,0,3.1-0.9,3.5-1.7l0-0.1c0.6-1.2,3.2-10.1,5.1-16.9c0.2-0.6,0.8-0.6,1,0c1.8,6.8,4.4,15.6,5,16.9c0.6,1.2,1.8,1.8,3.6,1.8
			c2.3,0,3.3-0.9,3.7-1.7l0-0.1c1-2.1,6.6-25.1,6.6-26.4C39.9,75.3,38.9,74.1,37.1,74.1z"/>
		<path class="st1" d="M65.7,74.1c-2.1,0-3.1,0.9-3.5,1.7l0,0.1c-0.6,1.2-3.2,10-5.1,16.7c-0.2,0.7-0.9,0.7-1.1,0
			c-1.8-6.7-4.3-15.4-4.9-16.7c-0.6-1.2-1.8-1.8-3.6-1.8c-2.3,0-3.3,0.9-3.7,1.7l0,0.1c-1,2.1-6.6,25.1-6.6,26.4
			c0,1.2,1,2.3,2.8,2.3c1.9,0,2.8-1,2.9-2c0.4-2.1,2.5-11.1,4-17.5c0.2-0.8,1-0.7,1.2,0.1c0.7,2.3,1.4,4.9,2.1,7.4
			c1.3,4.5,2.4,8.5,2.8,9.7c0.3,0.9,1.1,2,3.5,2c2.6,0,3.4-1.2,3.6-2c0.5-1.7,3-10.6,4.9-17.2c0.2-0.8,1-0.8,1.2,0
			c1.5,6.5,3.5,15.3,4,17.6l0,0.1c0.1,0.5,0.7,1.9,2.8,1.9c1.7,0,3-1,3-2.4c0-1.4-5.5-24.1-6.6-26.3C69,74.7,67.7,74.1,65.7,74.1z"
			/>
		<path class="st1" d="M95.8,98.6c-0.2,0-0.5,0-0.7,0.1c-1.4,0.3-3,0.5-4.9,0.5c-4.8,0-7.4-2.9-7.4-9.6c0-8,3.1-10,7.4-10
			c1.7,0,3.2,0.2,4.6,0.5c0.2,0.1,0.5,0.1,0.7,0.1c2.1,0.1,2.7-1.8,2.7-3.2c0-1-0.5-1.8-1.5-2.2l-0.1,0c-1.5-0.6-3.7-0.8-6.4-0.8
			c-8.9,0-13.4,5.3-13.4,15.7c0,6.6,1.4,15.3,13.2,15.3c1.5,0,4.4-0.1,6.5-0.8l0,0c1.1-0.4,1.8-1.7,1.8-2.8
			C98.4,99.7,97,98.6,95.8,98.6z"/>
	</g>
	<g>
		<path class="st1" d="M208.4,78h-4.9c-0.4,0-0.6,0.2-0.6,0.6c0,0.3,0.2,0.6,0.6,0.6h1.9v6.1c0,0.6,0.4,0.6,0.6,0.6
			c0.2,0,0.6-0.1,0.6-0.6v-6.1h1.9c0.4,0,0.6-0.2,0.6-0.6C209,78.2,208.8,78,208.4,78z"/>
		<path class="st1" d="M210.3,77.9c-0.4,0-0.6,0.2-0.6,0.6v6.7c0,0.6,0.4,0.6,0.6,0.6c0.2,0,0.6-0.1,0.6-0.6v-6.7
			C210.9,78.2,210.7,77.9,210.3,77.9z"/>
	</g>
</g>
</svg>
