<?xml version="1.0" encoding="utf-8"?>
<!-- Generator: Adobe Illustrator 21.0.0, SVG Export Plug-In . SVG Version: 6.00 Build 0)  -->
<svg version="1.1" id="Camada_1" xmlns="http://www.w3.org/2000/svg" xmlns:xlink="http://www.w3.org/1999/xlink" x="0px" y="0px"
	 viewBox="0 0 215 66" style="enable-background:new 0 0 215 66;" xml:space="preserve">
<style type="text/css">
	.st0{fill:#38B249;}
	.st1{fill:#FFFFFF;}
</style>
<g>
	<path class="st0" d="M73.7,45c0.7-0.6,1.3-1.4,1.3-2c0,0,0-0.3,0.1-0.9c0.1-0.6-2.4-24-2.4-24c-0.1-1-0.7-1.7-1.6-2.2
		c-0.9-0.5-2.2-0.6-3.5-0.3c0,0-0.6,0.1-1.6,0.3c-1,0.2-20.9,5.9-21.7,6.2c-0.5,0.2-1,0.3-1.5,0.5h-0.1l0,0
		c-2.5,0.8-3.2,2.9-2.8,5.1c0.3,1.9,0.6,3.9,0.6,3.9c0.2,0.8,0.1,1.7-0.1,2.5c-0.2,0.8-0.6,1.6-1.1,2.3s-1.2,1.3-1.9,1.8
		s-1.5,0.9-2.4,1.1c0,0-1.5,0.4-3.7,1c-1.1,0.3-2.2,0.6-3.4,0.9c-1.2,0.3-2.4,0.6-3.5,0.9c-1.1,0.3-2.2,0.6-3.1,0.8
		c-0.9,0.3-1.8,0.5-2.4,0.6c-1.3,0.4-2.2,0.6-2.2,0.6c-0.9,0.2-1.9,0-2.7-0.5c-0.9-0.6-1.6-1.4-2-2.5c0,0-0.4-1-0.7-2.1
		c-0.1-0.2-0.1-0.3-0.2-0.5C11,38.3,11,38.2,10.9,38c-0.5-1.2-1.4-1.7-2.8-1.1c-0.9,0.4-1.9,0.9-2.8,1.4c-1.1,0.5-2,1-2.7,1.4
		c-0.7,0.3-1.1,0.6-1.1,0.6c-0.5,0.2-0.6,1.2-0.2,2.1c0,0,0.4,0.8,1,2.1c0.3,0.6,0.7,1.3,1.1,2.1c0.4,0.7,0.8,1.5,1.3,2.3
		c0.5,0.7,0.9,1.5,1.4,2.1c0.4,0.7,0.9,1.3,1.3,1.8c0.5,0.7,0.9,1.2,1.1,1.4c0.1,0.1,0.2,0.2,0.2,0.2c0.6,0.7,1.5,1.2,2,1.2
		c0,0,0.5,0,1.3,0s1.9-0.1,3-0.1c1.1-0.1,2.2-0.1,3.2-0.2c1-0.4,1.2-1,0.7-2c-0.7-0.9-1.4-1.9-1.4-1.9c-0.6-0.9-0.8-1.8-0.6-2.5
		c0.2-0.7,0.7-1.3,1.6-1.5c0,0,0.8-0.2,2.2-0.4c0.7-0.1,1.5-0.3,2.4-0.5s2-0.4,3.1-0.6c1.1-0.2,2.3-0.5,3.5-0.7s2.3-0.5,3.4-0.7
		c2.1-0.4,3.6-0.8,3.6-0.8c0.9-0.2,1.8-0.2,2.7-0.2c0.9,0.1,1.7,0.3,2.5,0.6s1.5,0.7,2,1.2c0.6,0.5,1,1.1,1.2,1.7
		c0,0,0.6,1.4,1.1,2.6c0.2,0.4,0.4,0.8,0.5,1.2c0.5,0.8,1.2,1.1,2.2,0.9c0.7-0.1,1.5-0.3,2.5-0.4C52.6,51,71,46.5,71,46.5
		C72,46.2,73,45.6,73.7,45z M12.6,53.3c-1.7,0.1-3.1,0.3-3.1,0.3s-0.3-0.4-0.8-1.1l-0.3-0.4c-0.3-0.5-0.7-1-1.1-1.6s-0.8-1.3-1.2-2
		s-0.8-1.4-1.2-2.1c-0.4-0.7-0.7-1.3-1-1.9C3.3,43.4,3,42.6,3,42.6s1.3-0.6,2.9-1.2C7.4,40.7,9.2,40,9.2,40c0.2,0.6,0.5,1.2,0.7,1.8
		c0.2,0.4,0.4,0.8,0.6,1.2c0.3,0.6,0.8,1.1,1.2,1.6c0.7,0.8,1.6,1.4,2.5,1.9c-0.3,0.7-0.3,1.6-0.2,2.4c0.2,0.9,0.5,1.7,1.1,2.6
		c0.3,0.5,0.7,1,1,1.4C16.1,53,14.2,53.2,12.6,53.3z M51.3,47.9c-0.2-0.7-0.4-1.4-0.7-2.1c-0.2-0.7-0.6-1.3-1-2
		c-0.4-0.6-1-1.2-1.6-1.7s-1.4-1-2.2-1.4s-1.7-0.8-2.6-1c0.7-0.6,1.2-1.4,1.7-2.1c0.5-0.8,0.9-1.6,1.2-2.4c0.3-0.8,0.6-1.7,0.7-2.6
		c0.1-0.9,0.1-1.8-0.1-2.7c-0.2-1-0.3-2-0.5-3.1l19.5-5.4l3.4,22.2L51.3,47.9z"/>
	<path class="st0" d="M49.8,62.8c-0.2-0.3-0.5-0.7-0.8-1.2s-0.6-1-1-1.6c-0.3-0.6-0.7-1.2-1-1.8s-0.7-1.2-1-1.8l-0.1-0.3l0,0
		l-0.1-0.2c-0.5-0.9-1.3-1.4-2.5-1.3c-0.6,0.1-1.3,0.1-2,0.2c-1.8,0.2-3.6,0.4-3.6,0.4c-0.2,0-0.4,0-0.5,0c-0.5,0-1.1,0-1.6-0.1
		c-0.7-0.1-1.4-0.3-2-0.6s-1.2-0.6-1.7-1s-0.9-0.9-1.2-1.4c0,0-0.5-0.9-1.2-2.4C29,49.1,28.5,48,28,47l-3.6,0.8
		c0.4,0.9,0.9,1.8,1.2,2.5c0.7,1.4,1.2,2.3,1.2,2.3c0.6,1,0.6,1.8,0.3,2.4c-0.4,0.6-1.1,1-2.1,1l-1.8,0.1l0,0
		c-1.2,0.3-1.6,0.9-0.9,2c0.3,0.4,0.7,0.8,1.1,1.2c0.5,0.5,1,1.1,1.5,1.6s1,1,1.5,1.5c0.5,0.4,0.9,0.8,1.3,1.2c0.7,0.6,1.2,1,1.2,1
		c0.6,0.5,1.8,0.8,2.7,0.9c0,0,0.9,0,2.3,0h0.7c0.5,0,1.1,0,1.8,0c0.9,0,2,0,3-0.1c1.1,0,2.2-0.1,3.2-0.1c1.1-0.1,2.1-0.1,3-0.2
		c1.8-0.1,3-0.2,3-0.2c1.4-0.1,2.2-0.6,1.9-1.1C50.5,63.8,50.2,63.4,49.8,62.8z M43.1,63.3c-0.8,0-1.7,0.1-2.7,0.1s-1.9,0.1-2.9,0.1
		s-1.9,0-2.7,0h-0.4c-0.7,0-3.6,0-3.6,0s-4.5-4-4.8-4.3c-0.6-0.7-1-1.1-1-1.1c0.5,0,1.1,0,1.7,0c1.1,0,2-0.2,2.7-0.6
		c0.7-0.4,1.3-0.9,1.5-1.6c0.6,0.3,1.2,0.6,1.9,0.8c0.6,0.2,1.3,0.4,2,0.5c0.6,0.1,1.1,0.2,1.7,0.2c0.1,0,0.3,0,0.4,0
		c0.7,0,1.5,0,2.2,0c0.9-0.1,1.7-0.1,2.6-0.2c0,0,0.3,0.5,0.8,1.2c0.2,0.4,3.2,4.5,3.2,4.5S44.7,63.2,43.1,63.3z"/>
	<path class="st0" d="M10.1,25.4c0.1,1.1,0.1,2.2,0.3,3.2c0.1,1,0.2,2,0.3,2.8c0.3,1.7,1.4,2.2,3.3,1.4c0.8-0.4,1.5-0.7,1.5-0.7
		c1.1-0.5,2.2-0.4,3.1,0.2c0.1,0.1,0.3,0.2,0.4,0.3c0.7,0.6,1.2,1.6,1.5,2.7c0,0,0.9,4.3,1.3,5.3c1.2-0.3,2.5-0.8,3.7-1.1
		c-0.3-1.2-1.2-5.6-1.2-5.6c-0.1-0.7-0.1-1.5,0.1-2.2s0.5-1.5,0.9-2.2s1-1.3,1.7-1.9s1.4-1,2.3-1.3c0,0,2-0.7,4.1-1.5
		c1.6-0.7,4-2.4,4.2-5.2c0-1.1,0-2.4,0-3.7s0-2.7,0.1-4c0-1.4,0.1-2.6,0.2-3.8c0.1-0.9,0.1-2,0.2-2.8c0.1-1.8,0.2-3,0.2-3
		c0.1-1.4-1.5-1.7-3.5-0.9c0,0-1.8,0.8-4.3,1.9c-1.3,0.6-2.7,1.3-4.1,2c-0.2,0.1-0.4,0.2-0.7,0.3c-1.2,0.6-2.5,1.3-3.7,1.9
		c-1.4,0.7-2.7,1.5-3.9,2.2c-1.2,0.7-2.2,1.3-3.1,1.8c-1.7,1-2.8,1.7-2.8,1.7c-1.1,0.7-2.1,2.3-2.2,3.5c0,0-0.1,1-0.1,2.6
		c0,0.8,0,1.7,0,2.7C10,23.2,10.1,24.3,10.1,25.4z M12.9,20.2c0-0.8,0-1.5,0.1-2.1c0.1-1.2,0.1-2,0.1-2s1-0.6,2.5-1.5
		c0.8-0.5,1.7-1,2.7-1.6c1.1-0.6,2.2-1.2,3.4-1.9c1-0.5,2.1-1.1,3.1-1.6l0.6-0.3C26.7,8.6,27.9,8,29,7.4c2.2-1,3.8-1.7,3.8-1.7
		S32.7,6.6,32.6,8c-0.1,0.7-0.1,1.5-0.2,2.3c0,0.9-0.1,1.8-0.2,2.8c0,1-0.1,1.9-0.1,2.8c0,0.9,0,1.8,0,2.5c0,1.5,0,2.5,0,2.5
		c-1,0.4-2,0.8-3,1.2c-0.9,0.3-1.7,0.8-2.5,1.3s-1.5,1-2.1,1.6s-1.2,1.2-1.7,1.9c-0.5,0.7-0.9,1.4-1.3,2.1c-0.4-0.4-0.9-0.7-1.4-0.9
		c-0.5-0.2-1.1-0.4-1.7-0.5c-1.1-0.1-2.3,0.1-3.4,0.6c-0.6,0.3-1.2,0.6-1.8,0.9c0,0-0.1-0.8-0.2-2.1c0-0.6-0.1-1.4-0.1-2.1
		c0-0.8-0.1-1.6-0.1-2.5C12.9,21.7,12.9,20.9,12.9,20.2z"/>
</g>
<g>
	<g>
		<g>
			<path class="st1" d="M104.1,51.6c-4,0-5.3,1.7-5.3,6.8s2.1,6.2,5.2,6.2c3.5,0,5.2-1,5.2-6.8C109.3,53.1,108,51.6,104.1,51.6z
				 M107.4,58c0,4.5-0.8,4.9-3.3,4.9s-3.3-0.4-3.3-4.9c0-4.2,0.4-4.8,3.3-4.8C106.5,53.2,107.4,53.6,107.4,58z"/>
			<path class="st1" d="M115.6,47.5L115.6,47.5c-0.4-0.1-1-0.1-1.4-0.1c-2.7,0-3.2,1.4-3.2,3.5v12.6c0,0.7,0.3,1,1,1
				c0.9,0,0.9-0.8,0.9-1v-10h1.7c0.5,0,1-0.1,1-0.8s-0.5-0.8-1-0.8h-1.7v-1c0-1.6,0.1-1.8,1.5-1.8h0.9c0.3,0,1,0,1-0.8
				C116.1,47.9,115.9,47.6,115.6,47.5z"/>
			<path class="st1" d="M121.6,62.9H121c-0.8,0-1-0.2-1-1.4v-8h1.5c0.5,0,1-0.1,1-0.8s-0.5-0.8-1-0.8H120V49c0-0.7-0.3-1-1-1
				c-0.9,0-0.9,0.8-0.9,1v2.9h-0.3c-0.5,0-1,0.1-1,0.8c0,0.8,0.5,0.8,1,0.8h0.3V61c0,0.9,0,1.7,0.3,2.3c0.4,0.7,1.1,1.1,2.3,1.1
				c0.6,0,0.9,0,1.2-0.1c0.3-0.1,0.5-0.4,0.5-0.8C122.5,62.9,121.8,62.9,121.6,62.9z"/>
			<path class="st1" d="M141.1,51.7c-0.6,0-0.9,0.4-0.9,0.7c-0.3,1.2-1.7,6.8-2.5,9.3c-0.1,0.3-0.2,0.3-0.3,0.3s-0.2-0.1-0.3-0.3
				c-0.7-2.3-2.2-6.9-2.7-8.7l-0.2-0.6c-0.2-0.7-1-0.7-1.2-0.7c-0.3,0-1.1,0-1.3,0.7c-0.3,1-2,6.5-2.9,9.3c-0.1,0.2-0.2,0.3-0.3,0.3
				s-0.2-0.1-0.3-0.4c-0.7-2.5-2.2-8.1-2.5-9.3c-0.1-0.4-0.4-0.7-0.9-0.7c-0.6,0-1,0.3-1,0.8c0,0.6,2.8,10.3,3.3,11.4
				c0.3,0.7,1.1,0.7,1.4,0.7c0.6,0,1.1-0.2,1.3-0.7c0.3-0.7,2-5.7,3-9c0-0.1,0.1-0.2,0.2-0.2c0.1,0,0.2,0.1,0.2,0.2
				c1,3.2,2.6,8.3,3,9c0.3,0.7,1.1,0.7,1.3,0.7c0.3,0,1,0,1.3-0.7c0.5-1.1,3.2-10.8,3.2-11.4C142.1,52.1,141.8,51.7,141.1,51.7z"/>
			<path class="st1" d="M147.3,51.6c-1.1,0-2.4,0.2-3.1,0.4c-0.3,0.1-0.5,0.4-0.5,0.7c0,0.2,0.1,0.3,0.2,0.5
				c0.1,0.2,0.4,0.3,0.6,0.3c0.1,0,0.1,0,0.2,0c0.8-0.2,1.9-0.3,2.8-0.3c2.4,0,2.6,0.8,2.6,2.5c0,0.5,0,1-0.1,1.1c0,0-0.2,0-0.4,0.1
				l-2.2,0.2c-3.6,0.3-4.6,1.2-4.6,3.9s1.4,3.7,5.3,3.7c2.9,0,3.8-0.1,3.8-1.8V56C151.8,53,151.1,51.6,147.3,51.6z M150,59.3v2.6
				c0,0.6,0,0.9-0.2,1C149.5,63,149,63,148,63c-2.7,0-3.4-0.4-3.4-2.1c0-2,0.7-2.3,3.5-2.3h1.3c0.3,0,0.5,0,0.6,0.1
				C150,58.7,150,59,150,59.3z"/>
			<path class="st1" d="M159.9,52.5c0-0.8-0.6-0.9-1.6-0.9c-1.4,0-2.6,0.1-3.6,0.4c-0.6,0.2-0.9,0.5-0.9,1.3v10.1c0,0.7,0.3,1,1,1
				c0.9,0,0.9-0.8,0.9-1V54c0-0.5,0-0.5,0.2-0.6c0.3-0.2,1.3-0.2,2.2-0.2c0.3,0,0.5,0,0.7,0s0.3,0,0.5,0
				C159.5,53.2,159.9,53,159.9,52.5z"/>
			<path class="st1" d="M168.4,62.5c-0.1,0-0.2,0-0.3,0c-0.5,0.1-1.6,0.3-2.8,0.3c-2.9,0-3.8-1-3.8-4.1c0-0.1,0-0.3,0-0.3
				s0.2,0,0.4,0l4.5-0.1c2.4,0,3.1-0.4,3.1-2.7c0-2.7-1.6-4.2-4.5-4.2c-3.6,0-5.4,1.9-5.4,5.8v1.2c0,4.3,1.6,6,5.5,6
				c1.3,0,2.6-0.2,3.5-0.5c0.4-0.2,0.5-0.5,0.5-0.8C169.1,62.7,168.7,62.5,168.4,62.5z M161.5,56.5c0-2.2,1.2-3.3,3.5-3.3
				c1.8,0,2.7,0.9,2.7,2.7c0,1,0,1-1.8,1h-3.7c-0.2,0-0.5,0-0.6,0c0,0,0-0.1,0-0.3L161.5,56.5L161.5,56.5z"/>
			<path class="st1" d="M94.4,57.2c-1.8-1.3-2.1-2-2.1-2.6s0.2-1.3,2.1-1.3c0.6,0,1.2,0,1.9,0.1h0.1c0.1,0,0.7,0,0.7-0.9
				c0-1-1.2-1-2.7-1c-3.2,0-3.9,1.7-3.9,3.1c0,1.6,0.9,2.5,3,4.2c1.5,1.2,2,1.8,2,2.7c0,0.7-0.3,1.4-2.3,1.4c-0.7,0-1.4,0-2-0.1
				h-0.1c-0.4,0-0.8,0.2-0.8,0.9c0,1,1.5,1,2.8,1c2.9,0,4.3-1.1,4.3-3.2C97.3,59.6,96.2,58.5,94.4,57.2z"/>
		</g>
	</g>
	<g>
		<path class="st1" d="M133.7,2.1c-2.5,0-3.6,1.3-3.8,2.6c-0.6,2.8-3.1,14.5-5.2,22.8c-0.2,1-1.3,0.8-1.5,0
			c-0.9-3.1-1.9-6.6-2.8-9.9c-1.7-5.9-3.1-11-3.6-12.5c-0.3-1.2-1.4-2.5-4.6-2.5c-3.4,0-4.3,1.6-4.6,2.6c-0.6,2.2-4,13.9-6.4,22.3
			c-0.3,1-1.3,1-1.5,0c-2-8.4-4.6-20-5.2-22.9V4.5C94.3,3.9,93.6,2,90.8,2c-2.2,0-3.9,1.3-3.9,3.1s7.1,31.2,8.5,34.1
			c0.7,1.5,2.4,2.3,4.9,2.3c2.8,0,4-1.2,4.5-2.2v-0.1c0.7-1.5,4.2-13.1,6.7-21.9c0.2-0.8,1.1-0.8,1.3,0c2.4,8.8,5.7,20.3,6.5,21.9
			c0.7,1.5,2.3,2.3,4.7,2.3c3,0,4.2-1.2,4.8-2.2v-0.1c1.3-2.8,8.5-32.5,8.5-34.2C137.3,3.7,136.1,2.1,133.7,2.1z"/>
		<path class="st1" d="M170.8,2.1c-2.8,0-4,1.2-4.5,2.2v0.1c-0.7,1.5-4.1,12.9-6.6,21.7c-0.3,0.9-1.2,0.8-1.4-0.1
			c-2.4-8.7-5.6-20-6.4-21.6c-0.7-1.5-2.3-2.3-4.7-2.3c-3,0-4.2,1.2-4.8,2.2v0.1c-1.3,2.8-8.5,32.5-8.5,34.2c0,1.5,1.3,3,3.7,3
			c2.5,0,3.6-1.3,3.8-2.6c0.6-2.8,3.2-14.3,5.2-22.7c0.2-1,1.3-1,1.6,0.1c0.9,3,1.8,6.4,2.7,9.6c1.7,5.9,3.1,11,3.6,12.5
			c0.3,1.2,1.4,2.5,4.6,2.5c3.4,0,4.3-1.6,4.6-2.6c0.6-2.2,3.9-13.8,6.4-22.2c0.3-1,1.3-1,1.6,0.1c2,8.4,4.6,19.9,5.2,22.7v0.1
			c0.2,0.6,0.9,2.5,3.7,2.5c2.2,0,3.9-1.3,3.9-3.1S177.4,7.3,176,4.4C175,2.9,173.3,2.1,170.8,2.1z"/>
		<path class="st1" d="M209.7,33.9c-0.3,0-0.6,0-0.9,0.1c-1.8,0.4-3.8,0.6-6.4,0.6c-6.2,0-9.5-3.8-9.5-12.5c0-10.4,4-13,9.6-13
			c2.2,0,4.2,0.2,6,0.6c0.3,0.1,0.6,0.1,0.9,0.1c2.7,0.1,3.5-2.3,3.5-4.1c0-1.3-0.7-2.3-1.9-2.8h-0.1c-1.9-0.7-4.7-1.1-8.3-1.1
			c-11.5,0-17.4,6.8-17.4,20.3c0,8.5,1.8,19.8,17.1,19.8c2,0,5.7-0.1,8.4-1l0,0c1.5-0.5,2.3-2.2,2.3-3.7
			C213,35.3,211.2,33.9,209.7,33.9z"/>
	</g>
</g>
</svg>
